<?xml version="1.0" encoding="UTF-8"?>
<svg width="73px" height="16px" viewBox="0 0 73 16" version="1.1" xmlns="http://www.w3.org/2000/svg" xmlns:xlink="http://www.w3.org/1999/xlink">
    <!-- Generator: Sketch 54.1 (76490) - https://sketchapp.com -->
    <title>编组</title>
    <desc>Created with Sketch.</desc>
    <g id="Page-2" stroke="none" stroke-width="1" fill="none" fill-rule="evenodd">
        <g id="2" transform="translate(-12.000000, -6.000000)" fill="#FFFFFF">
            <g id="Group-5">
                <g id="编组" transform="translate(12.000000, 6.000000)">
                    <path d="M23.6469136,2.01728395 C23.6469136,2.01728395 23.6469136,3.98765432 22.9901235,5.66419753 L22.9382716,13.6493827 L21.3135802,13.6320988 L21.3481481,8.01481481 C20.6395062,8.72345679 20,9.15555556 20,9.15555556 L20.017284,6.89135802 C20.017284,6.89135802 20.9506173,5.94074074 21.3654321,4.92098765 C21.7802469,3.90123457 22.0222222,2 22.0222222,2 L23.6469136,2.01728395 Z M23.9816522,8.17830426 L23.9889215,6.89929191 L31.7494154,6.94339909 L31.742146,8.22241144 L23.9816522,8.17830426 Z M31.182716,9.0691358 C31.5111111,9.0691358 31.7876543,9.34567901 31.7876543,9.67407407 L31.7703704,13.0790123 C31.7703704,13.4246914 31.4938272,13.6839506 31.1654321,13.6839506 L24.4592593,13.6493827 C24.1135802,13.6493827 23.854321,13.3728395 23.854321,13.0444444 L23.8716049,9.63950617 C23.8716049,9.29382716 24.1481481,9.0345679 24.4765432,9.0345679 L31.182716,9.0691358 Z M30.145679,12.4222222 L30.162963,10.3481481 L25.4790123,10.3135802 L25.4617284,12.3876543 L30.145679,12.4222222 Z M23.9920517,6.21301667 L23.999321,4.93400432 L31.7598148,4.9781115 L31.7525455,6.25712384 L23.9920517,6.21301667 Z M28.6419753,3.00246914 L31.9777778,3.01975309 L31.9777778,4.28148148 L23.7679012,4.24691358 L23.7851852,2.96790123 L27.017284,2.98518519 L26.9308642,2.0345679 L28.5555556,2.05185185 L28.6419753,3.00246914 Z M42.5209877,5.54320988 L40.8962963,5.52592593 L40.0320988,3.27901235 L41.6567901,3.2962963 L42.5209877,5.54320988 Z M42.5037037,9.1382716 L40.8790123,9.12098765 L40.0148148,6.89135802 L41.6395062,6.89135802 L42.5037037,9.1382716 Z M45.7703704,9.91604938 L45.7703704,11.4024691 L44.5950617,11.5407407 L44.5777778,13.7703704 L42.9530864,13.7703704 L42.9703704,11.7481481 L38.7703704,12.2320988 L38.7876543,10.7283951 L42.9876543,10.2444444 L43.0222222,2.12098765 L44.6469136,2.1382716 L44.6123457,10.054321 L45.7703704,9.91604938 Z M39.3234568,8.68888889 L39.3234568,10.382716 L37.3876543,9.12098765 L37.3530864,13.7530864 L35.7283951,13.7358025 L35.745679,9.44938272 C35.745679,9.44938272 35.6419753,9.67407407 34.9506173,10.5037037 C34.2419753,11.3333333 33.654321,11.9728395 33.654321,11.9728395 L33.6716049,9.46666667 C33.6716049,9.46666667 34.1728395,8.84444444 34.7950617,7.98024691 C35.382716,7.18518519 35.762963,6.47654321 35.762963,6.47654321 L33.982716,6.45925926 L33.982716,5.18024691 L35.762963,5.19753086 L35.762963,4.02222222 C34.7604938,4.05679012 33.982716,4.02222222 33.982716,4.02222222 L33.982716,2.74320988 C33.982716,2.74320988 35.4345679,2.77777778 36.437037,2.67407407 C37.4395062,2.57037037 39.0469136,2.27654321 39.0469136,2.27654321 L39.0469136,3.55555556 C39.0469136,3.55555556 38.545679,3.71111111 37.3876543,3.86666667 L37.3876543,5.19753086 L39.2716049,5.21481481 L39.2716049,6.49382716 L37.3876543,6.47654321 L37.3876543,7.42716049 L39.3234568,8.68888889 Z M72.6123457,9.69135802 C72.6123457,9.69135802 72.6123457,10.2790123 72.6296296,10.8666667 C72.1283951,10.8666667 71.2123457,10.7283951 70.2271605,10.4345679 L70.2098765,13.8740741 L68.5851852,13.8567901 L68.6024691,9.79506173 C67.9802469,9.48395062 67.3925926,9.12098765 66.908642,8.67160494 C66.545679,9 66.1135802,9.29382716 65.6641975,9.53580247 L65.6641975,10.6938272 C65.5950617,12.9925926 63.7802469,13.7185185 62.0691358,13.891358 C62.0691358,13.7358025 62.0691358,12.854321 62.0691358,12.5432099 C63.0888889,12.3703704 64.0049383,11.5580247 64.0222222,10.6765432 L64.0222222,10.2271605 C62.8641975,10.6074074 61.7407407,10.7802469 61.1530864,10.7802469 C61.1530864,10.2098765 61.1530864,9.62222222 61.1530864,9.62222222 C62.6222222,9.48395062 64.3851852,8.77530864 65.3703704,8.01481481 L62.4320988,7.99753086 C62.1555556,7.99753086 61.9308642,7.75555556 61.9308642,7.47901235 L61.9654321,2.84691358 C61.9654321,2.57037037 62.2074074,2.34567901 62.4839506,2.34567901 L71.5753086,2.39753086 C71.8518519,2.39753086 72.0765432,2.63950617 72.0765432,2.91604938 L72.0419753,7.54814815 C72.0419753,7.82469136 71.8,8.04938272 71.5234568,8.04938272 L68.4123457,8.03209877 C69.3802469,8.80987654 71.1432099,9.53580247 72.6123457,9.69135802 Z M70.417284,6.89135802 L70.417284,6.02716049 L67.7901235,6.00987654 L67.7901235,6.87407407 L70.417284,6.89135802 Z M70.4345679,4.7654321 L70.4345679,3.79753086 L67.8074074,3.78024691 L67.8074074,4.74814815 L70.4345679,4.7654321 Z M63.5728395,3.74567901 L63.5728395,4.71358025 L66.2,4.7308642 L66.2,3.76296296 L63.5728395,3.74567901 Z M63.5555556,5.99259259 L63.5555556,6.85679012 L66.182716,6.87407407 L66.182716,6.00987654 L63.5555556,5.99259259 Z M51.7679012,9.67407407 L50.6962963,9.01728395 L50.6617284,13.8567901 L49.037037,13.8395062 L49.054321,9.55308642 C48.5358025,10.1407407 47.9135802,10.8148148 47.5679012,11.1777778 L47.5851852,9.24197531 C47.9481481,8.80987654 48.5876543,8.04938272 48.9506173,7.51358025 C48.9851852,7.44444444 49.037037,7.39259259 49.0716049,7.32345679 L49.0716049,7.28888889 L49.0888889,7.28888889 C49.5901235,6.49382716 49.9703704,5.64691358 50.0740741,5.42222222 L47.7407407,5.40493827 L47.7407407,4.12592593 L51.7851852,4.14320988 L51.7851852,5.42222222 L51.7679012,5.42222222 C51.6814815,5.62962963 51.3530864,6.42469136 50.782716,7.34074074 L51.7851852,7.99753086 L51.7679012,9.67407407 Z M53.8765432,3.52098765 L53.8419753,9.43209877 L52.217284,9.41481481 L52.2518519,2.84691358 C52.2518519,2.50123457 52.5283951,2.24197531 52.8567901,2.24197531 L58.1975309,2.27654321 C58.5432099,2.27654321 58.8024691,2.55308642 58.8024691,2.88148148 L58.7679012,9.44938272 L57.1432099,9.43209877 L57.1777778,3.5382716 L53.8765432,3.52098765 Z M58.162963,10.4345679 L59.4592593,10.4518519 L59.4419753,13.0271605 C59.4419753,13.3728395 59.1654321,13.6320988 58.837037,13.6320988 L55.2938272,13.6148148 C54.9481481,13.6148148 54.6888889,13.3382716 54.6888889,13.0098765 L54.7061728,11.4024691 C53.9975309,12.2839506 52.9777778,13.0271605 51.6469136,13.8222222 C51.6469136,13.182716 51.6469136,12.4049383 51.6469136,12.4049383 C53.1679012,11.1777778 54.0493827,10.417284 54.4814815,9.05185185 C54.8098765,8.01481481 54.8444444,6.63209877 54.8617284,4.41975309 C55.8641975,4.41975309 56.3135802,4.41975309 56.3135802,4.41975309 C56.2962963,5.83703704 56.2271605,8.03209877 55.6395062,9.70864198 L56.3308642,9.70864198 L56.3135802,12.3358025 L58.145679,12.3530864 L58.162963,10.4345679 Z M50.7308642,3.90123457 L49.1061728,3.90123457 L48.4666667,2.22469136 L50.091358,2.22469136 L50.7308642,3.90123457 Z" id="Combined-Shape" fill-rule="nonzero"></path>
                    <path d="M8.71977176,1.09694327 C5.94477714,1.09694327 3.53924138,2.67798394 2.35465583,4.98845919 L0.814874332,4.98845919 C2.00171595,2.06322614 4.87024154,-3.10862447e-15 8.22148794,-3.10862447e-15 C11.5727343,-3.10862447e-15 14.4416423,2.06322614 15.6286369,4.98845919 L15.0189648,4.98845919 C14.092488,3.69007634 12.5742347,2.84370891 10.8581362,2.84370891 C9.14211423,2.84370891 7.62470216,3.69068815 6.69830188,4.98845919 L5.08720588,4.98845919 C6.07643175,3.13068765 8.03232287,1.86583983 10.2844082,1.86583983 C11.2797139,1.86583983 12.218274,2.11343308 13.0401689,2.55000022 C11.8403262,1.63824522 10.3436776,1.09694327 8.71977176,1.09694327 Z M7.72374711,14.9030567 C10.4987035,14.9030567 12.9042775,13.3219778 14.088863,11.0115026 L15.6286445,11.0115026 C14.4418029,13.9367739 11.5732773,16 8.22199269,16 C4.87074628,16 2.00187655,13.9367739 0.81488198,11.0115026 L1.42455408,11.0115026 C2.3509926,12.3099237 3.86924591,13.1562529 5.58534439,13.1562529 C7.30140464,13.1562529 8.81877847,12.3093118 9.74521698,11.0115026 L11.356313,11.0115026 C10.3670871,12.8692741 8.41119599,14.1341219 6.15911069,14.1341219 C5.16380493,14.1341219 4.22524486,13.8865287 3.40331173,13.4499998 C4.60315438,14.3617548 6.09984126,14.9030567 7.72374711,14.9030567 Z M4.01234907,9.94700835 L1.37596845,9.94700835 C0.556673761,9.94700835 5.32907052e-15,9.31680226 5.32907052e-15,8.58151721 L5.32907052e-15,7.26856555 C5.32907052e-15,6.59637376 0.535680913,5.95565213 1.722599,5.95565213 C2.90947885,5.95565213 4.03334192,5.93462104 4.03334192,5.95565213 L4.03334192,7.01649841 L1.65954398,7.01649841 C1.22890379,7.01649841 1.23941933,7.21606431 1.23941933,7.48916254 L1.23941933,8.69707348 C1.23941933,8.90715492 1.38648399,8.95965616 1.77510024,8.95965616 L4.01234907,8.95965616 L4.01234907,9.94700835 Z M9.01350722,7.01650988 C8.58286702,7.01650988 8.59338257,7.21607578 8.59338257,7.48913577 L8.59338257,8.69704671 C8.59338257,8.90712815 8.74040899,8.95962939 9.12902524,8.95962939 L11.3663123,8.95962939 L11.3663123,9.94701982 L8.72989344,9.94701982 C7.910637,9.94701982 7.35396324,9.31677549 7.35396324,8.58152868 L7.35396324,7.26857702 C7.35396324,6.59638523 7.88960591,5.9556636 9.076524,5.9556636 C10.2634421,5.9556636 11.3873052,5.93463251 11.3873052,5.9556636 L11.3873052,7.01650988 L9.01350722,7.01650988 Z M5.06041992,9.96168805 L5.06041992,5.96279887 L6.41600733,5.96279887 L6.41600733,9.96168805 L5.06041992,9.96168805 Z M12.2284033,5.94699497 L16.2273308,5.94699497 L16.2273308,7.02088052 L14.9447786,7.02088052 L14.9447786,9.96167658 L13.5891912,9.96167658 L13.5891912,7.02088052 L12.2284033,7.02088052 L12.2284033,5.94699497 Z" id="形状结合"></path>
                </g>
            </g>
        </g>
    </g>
</svg>